<mxfile host="app.diagrams.net" modified="2024-05-02T04:35:16.789Z" agent="Mozilla/5.0 (Windows NT 10.0; Win64; x64) AppleWebKit/537.36 (KHTML, like Gecko) Chrome/124.0.0.0 Safari/537.36" etag="4_gJSkyOsXfRwlYOr7KX" version="24.3.1" type="device">
  <diagram id="C5RBs43oDa-KdzZeNtuy" name="Page-1">
    <mxGraphModel dx="1948" dy="641" grid="1" gridSize="10" guides="1" tooltips="1" connect="1" arrows="1" fold="1" page="1" pageScale="1" pageWidth="827" pageHeight="1169" math="0" shadow="0">
      <root>
        <mxCell id="WIyWlLk6GJQsqaUBKTNV-0" />
        <mxCell id="WIyWlLk6GJQsqaUBKTNV-1" parent="WIyWlLk6GJQsqaUBKTNV-0" />
        <mxCell id="EPnrbAqvLK3zoyTaMCjb-23" style="edgeStyle=orthogonalEdgeStyle;rounded=0;orthogonalLoop=1;jettySize=auto;html=1;" parent="WIyWlLk6GJQsqaUBKTNV-1" source="WIyWlLk6GJQsqaUBKTNV-3" edge="1">
          <mxGeometry relative="1" as="geometry">
            <mxPoint x="115" y="110" as="targetPoint" />
          </mxGeometry>
        </mxCell>
        <mxCell id="WIyWlLk6GJQsqaUBKTNV-3" value="Start" style="rounded=1;whiteSpace=wrap;html=1;fontSize=12;glass=0;strokeWidth=1;shadow=0;" parent="WIyWlLk6GJQsqaUBKTNV-1" vertex="1">
          <mxGeometry x="55" width="120" height="40" as="geometry" />
        </mxCell>
        <mxCell id="EPnrbAqvLK3zoyTaMCjb-27" style="edgeStyle=orthogonalEdgeStyle;rounded=0;orthogonalLoop=1;jettySize=auto;html=1;entryX=0;entryY=0.5;entryDx=0;entryDy=0;" parent="WIyWlLk6GJQsqaUBKTNV-1" source="WIyWlLk6GJQsqaUBKTNV-6" edge="1" target="EPnrbAqvLK3zoyTaMCjb-44">
          <mxGeometry relative="1" as="geometry">
            <mxPoint x="350" y="230" as="targetPoint" />
          </mxGeometry>
        </mxCell>
        <mxCell id="EPnrbAqvLK3zoyTaMCjb-28" style="edgeStyle=orthogonalEdgeStyle;rounded=0;orthogonalLoop=1;jettySize=auto;html=1;entryX=1;entryY=0.5;entryDx=0;entryDy=0;" parent="WIyWlLk6GJQsqaUBKTNV-1" source="WIyWlLk6GJQsqaUBKTNV-6" edge="1">
          <mxGeometry relative="1" as="geometry">
            <mxPoint x="-160" y="230" as="targetPoint" />
            <Array as="points">
              <mxPoint x="-50" y="315" />
              <mxPoint x="-50" y="230" />
            </Array>
          </mxGeometry>
        </mxCell>
        <mxCell id="WIyWlLk6GJQsqaUBKTNV-6" value="1. Print the List of lands.&lt;div&gt;2. Print the list of available lands&lt;/div&gt;&lt;div&gt;3. Print the list of not available lands&lt;/div&gt;&lt;div&gt;4. Rent land&lt;/div&gt;&lt;div&gt;5. Return Land&lt;/div&gt;&lt;div&gt;6. Refund&lt;/div&gt;&lt;div&gt;0. Exit&lt;/div&gt;" style="rhombus;whiteSpace=wrap;html=1;shadow=0;fontFamily=Helvetica;fontSize=12;align=center;strokeWidth=1;spacing=6;spacingTop=-4;" parent="WIyWlLk6GJQsqaUBKTNV-1" vertex="1">
          <mxGeometry x="-20" y="220" width="270" height="190" as="geometry" />
        </mxCell>
        <mxCell id="EPnrbAqvLK3zoyTaMCjb-0" style="edgeStyle=orthogonalEdgeStyle;rounded=0;orthogonalLoop=1;jettySize=auto;html=1;exitX=0.5;exitY=1;exitDx=0;exitDy=0;" parent="WIyWlLk6GJQsqaUBKTNV-1" source="WIyWlLk6GJQsqaUBKTNV-6" target="WIyWlLk6GJQsqaUBKTNV-6" edge="1">
          <mxGeometry relative="1" as="geometry" />
        </mxCell>
        <mxCell id="EPnrbAqvLK3zoyTaMCjb-24" style="edgeStyle=orthogonalEdgeStyle;rounded=0;orthogonalLoop=1;jettySize=auto;html=1;entryX=0.5;entryY=0;entryDx=0;entryDy=0;" parent="WIyWlLk6GJQsqaUBKTNV-1" target="WIyWlLk6GJQsqaUBKTNV-6" edge="1">
          <mxGeometry relative="1" as="geometry">
            <mxPoint x="115" y="170" as="sourcePoint" />
          </mxGeometry>
        </mxCell>
        <mxCell id="EPnrbAqvLK3zoyTaMCjb-29" value="1" style="text;html=1;align=center;verticalAlign=middle;resizable=0;points=[];autosize=1;strokeColor=none;fillColor=none;" parent="WIyWlLk6GJQsqaUBKTNV-1" vertex="1">
          <mxGeometry x="250" y="260" width="30" height="30" as="geometry" />
        </mxCell>
        <mxCell id="EPnrbAqvLK3zoyTaMCjb-30" value="2" style="text;html=1;align=center;verticalAlign=middle;resizable=0;points=[];autosize=1;strokeColor=none;fillColor=none;" parent="WIyWlLk6GJQsqaUBKTNV-1" vertex="1">
          <mxGeometry x="-40" y="230" width="30" height="30" as="geometry" />
        </mxCell>
        <mxCell id="EPnrbAqvLK3zoyTaMCjb-35" value="" style="endArrow=classic;html=1;rounded=0;exitX=0.5;exitY=0;exitDx=0;exitDy=0;entryX=0;entryY=0;entryDx=0;entryDy=0;" parent="WIyWlLk6GJQsqaUBKTNV-1" edge="1">
          <mxGeometry width="50" height="50" relative="1" as="geometry">
            <mxPoint x="-215" y="207.5" as="sourcePoint" />
            <mxPoint x="67.6470588235295" y="120.73529411764696" as="targetPoint" />
            <Array as="points">
              <mxPoint x="-215" y="120" />
            </Array>
          </mxGeometry>
        </mxCell>
        <mxCell id="EPnrbAqvLK3zoyTaMCjb-36" value="" style="endArrow=classic;html=1;rounded=0;exitX=0.5;exitY=0;exitDx=0;exitDy=0;entryX=1.009;entryY=0.129;entryDx=0;entryDy=0;entryPerimeter=0;" parent="WIyWlLk6GJQsqaUBKTNV-1" edge="1" target="EPnrbAqvLK3zoyTaMCjb-46">
          <mxGeometry width="50" height="50" relative="1" as="geometry">
            <mxPoint x="410" y="200" as="sourcePoint" />
            <mxPoint x="120" y="80" as="targetPoint" />
            <Array as="points">
              <mxPoint x="410" y="119" />
            </Array>
          </mxGeometry>
        </mxCell>
        <mxCell id="EPnrbAqvLK3zoyTaMCjb-37" value="" style="endArrow=classic;html=1;rounded=0;exitX=0;exitY=0.5;exitDx=0;exitDy=0;entryX=1;entryY=0.5;entryDx=0;entryDy=0;" parent="WIyWlLk6GJQsqaUBKTNV-1" source="WIyWlLk6GJQsqaUBKTNV-6" edge="1">
          <mxGeometry width="50" height="50" relative="1" as="geometry">
            <mxPoint x="160" y="300" as="sourcePoint" />
            <mxPoint x="-160" y="410" as="targetPoint" />
            <Array as="points">
              <mxPoint x="-50" y="315" />
              <mxPoint x="-50" y="410" />
            </Array>
          </mxGeometry>
        </mxCell>
        <mxCell id="EPnrbAqvLK3zoyTaMCjb-38" value="3" style="text;html=1;align=center;verticalAlign=middle;resizable=0;points=[];autosize=1;strokeColor=none;fillColor=none;" parent="WIyWlLk6GJQsqaUBKTNV-1" vertex="1">
          <mxGeometry x="-45" y="348" width="30" height="30" as="geometry" />
        </mxCell>
        <mxCell id="EPnrbAqvLK3zoyTaMCjb-39" value="" style="endArrow=classic;html=1;rounded=0;exitX=0.847;exitY=-0.017;exitDx=0;exitDy=0;exitPerimeter=0;entryX=0;entryY=0.75;entryDx=0;entryDy=0;" parent="WIyWlLk6GJQsqaUBKTNV-1" edge="1" target="EPnrbAqvLK3zoyTaMCjb-46">
          <mxGeometry width="50" height="50" relative="1" as="geometry">
            <mxPoint x="-178.3599999999999" y="378.98" as="sourcePoint" />
            <mxPoint x="120" y="80" as="targetPoint" />
            <Array as="points">
              <mxPoint x="-100" y="161" />
            </Array>
          </mxGeometry>
        </mxCell>
        <mxCell id="EPnrbAqvLK3zoyTaMCjb-42" value="" style="endArrow=classic;html=1;rounded=0;exitX=0.5;exitY=1;exitDx=0;exitDy=0;" parent="WIyWlLk6GJQsqaUBKTNV-1" source="WIyWlLk6GJQsqaUBKTNV-6" edge="1" target="EPnrbAqvLK3zoyTaMCjb-47">
          <mxGeometry width="50" height="50" relative="1" as="geometry">
            <mxPoint x="160" y="380" as="sourcePoint" />
            <mxPoint x="-5" y="510" as="targetPoint" />
            <Array as="points">
              <mxPoint x="115" y="460" />
              <mxPoint x="-5" y="460" />
            </Array>
          </mxGeometry>
        </mxCell>
        <mxCell id="EPnrbAqvLK3zoyTaMCjb-43" value="Print the list of available lands" style="shape=parallelogram;perimeter=parallelogramPerimeter;whiteSpace=wrap;html=1;fixedSize=1;" parent="WIyWlLk6GJQsqaUBKTNV-1" vertex="1">
          <mxGeometry x="-270" y="200" width="120" height="60" as="geometry" />
        </mxCell>
        <mxCell id="EPnrbAqvLK3zoyTaMCjb-44" value="Print the list of lands" style="shape=parallelogram;perimeter=parallelogramPerimeter;whiteSpace=wrap;html=1;fixedSize=1;" parent="WIyWlLk6GJQsqaUBKTNV-1" vertex="1">
          <mxGeometry x="330" y="200" width="140" height="60" as="geometry" />
        </mxCell>
        <mxCell id="EPnrbAqvLK3zoyTaMCjb-45" value="Print the list of not avialable lands" style="shape=parallelogram;perimeter=parallelogramPerimeter;whiteSpace=wrap;html=1;fixedSize=1;" parent="WIyWlLk6GJQsqaUBKTNV-1" vertex="1">
          <mxGeometry x="-280" y="378" width="130" height="60" as="geometry" />
        </mxCell>
        <mxCell id="EPnrbAqvLK3zoyTaMCjb-46" value="Ask user input on their decision." style="shape=parallelogram;perimeter=parallelogramPerimeter;whiteSpace=wrap;html=1;fixedSize=1;" parent="WIyWlLk6GJQsqaUBKTNV-1" vertex="1">
          <mxGeometry x="50" y="110" width="150" height="70" as="geometry" />
        </mxCell>
        <mxCell id="EPnrbAqvLK3zoyTaMCjb-47" value="Ask&amp;nbsp; user input on&amp;nbsp;&lt;div&gt;which land to rent&amp;nbsp;&lt;/div&gt;" style="shape=parallelogram;perimeter=parallelogramPerimeter;whiteSpace=wrap;html=1;fixedSize=1;" parent="WIyWlLk6GJQsqaUBKTNV-1" vertex="1">
          <mxGeometry x="-85" y="517.5" width="140" height="80" as="geometry" />
        </mxCell>
        <mxCell id="IjV_NzWO8GJ3UAN_setO-0" value="4" style="text;html=1;align=center;verticalAlign=middle;resizable=0;points=[];autosize=1;strokeColor=none;fillColor=none;" vertex="1" parent="WIyWlLk6GJQsqaUBKTNV-1">
          <mxGeometry x="70" y="428" width="30" height="30" as="geometry" />
        </mxCell>
        <mxCell id="IjV_NzWO8GJ3UAN_setO-1" value="" style="endArrow=classic;html=1;rounded=0;entryX=1;entryY=0.5;entryDx=0;entryDy=0;exitX=0;exitY=0.5;exitDx=0;exitDy=0;" edge="1" parent="WIyWlLk6GJQsqaUBKTNV-1" source="EPnrbAqvLK3zoyTaMCjb-47" target="IjV_NzWO8GJ3UAN_setO-5">
          <mxGeometry width="50" height="50" relative="1" as="geometry">
            <mxPoint x="-160" y="560" as="sourcePoint" />
            <mxPoint x="-240" y="570" as="targetPoint" />
          </mxGeometry>
        </mxCell>
        <mxCell id="IjV_NzWO8GJ3UAN_setO-4" value="Return Land" style="rounded=0;whiteSpace=wrap;html=1;" vertex="1" parent="WIyWlLk6GJQsqaUBKTNV-1">
          <mxGeometry x="420" y="518.75" width="120" height="60" as="geometry" />
        </mxCell>
        <mxCell id="IjV_NzWO8GJ3UAN_setO-5" value="Rent Land" style="rounded=0;whiteSpace=wrap;html=1;" vertex="1" parent="WIyWlLk6GJQsqaUBKTNV-1">
          <mxGeometry x="-350" y="525" width="140" height="70" as="geometry" />
        </mxCell>
        <mxCell id="IjV_NzWO8GJ3UAN_setO-6" value="" style="endArrow=classic;html=1;rounded=0;entryX=0;entryY=0.5;entryDx=0;entryDy=0;exitX=0.375;exitY=-0.005;exitDx=0;exitDy=0;exitPerimeter=0;" edge="1" parent="WIyWlLk6GJQsqaUBKTNV-1" source="IjV_NzWO8GJ3UAN_setO-5" target="EPnrbAqvLK3zoyTaMCjb-46">
          <mxGeometry width="50" height="50" relative="1" as="geometry">
            <mxPoint x="30" y="430" as="sourcePoint" />
            <mxPoint x="80" y="380" as="targetPoint" />
            <Array as="points">
              <mxPoint x="-297" y="145" />
            </Array>
          </mxGeometry>
        </mxCell>
        <mxCell id="IjV_NzWO8GJ3UAN_setO-7" value="Ask user input on&amp;nbsp;&lt;div&gt;which land to return&lt;/div&gt;" style="shape=parallelogram;perimeter=parallelogramPerimeter;whiteSpace=wrap;html=1;fixedSize=1;" vertex="1" parent="WIyWlLk6GJQsqaUBKTNV-1">
          <mxGeometry x="180" y="518.75" width="140" height="72.5" as="geometry" />
        </mxCell>
        <mxCell id="IjV_NzWO8GJ3UAN_setO-8" value="" style="endArrow=classic;html=1;rounded=0;entryX=0.569;entryY=-0.012;entryDx=0;entryDy=0;entryPerimeter=0;exitX=0.5;exitY=1;exitDx=0;exitDy=0;" edge="1" parent="WIyWlLk6GJQsqaUBKTNV-1" source="WIyWlLk6GJQsqaUBKTNV-6" target="IjV_NzWO8GJ3UAN_setO-7">
          <mxGeometry width="50" height="50" relative="1" as="geometry">
            <mxPoint x="30" y="430" as="sourcePoint" />
            <mxPoint x="80" y="380" as="targetPoint" />
            <Array as="points">
              <mxPoint x="115" y="460" />
              <mxPoint x="260" y="460" />
            </Array>
          </mxGeometry>
        </mxCell>
        <mxCell id="IjV_NzWO8GJ3UAN_setO-9" value="5" style="text;html=1;align=center;verticalAlign=middle;resizable=0;points=[];autosize=1;strokeColor=none;fillColor=none;" vertex="1" parent="WIyWlLk6GJQsqaUBKTNV-1">
          <mxGeometry x="160" y="430" width="30" height="30" as="geometry" />
        </mxCell>
        <mxCell id="IjV_NzWO8GJ3UAN_setO-10" value="" style="endArrow=classic;html=1;rounded=0;entryX=0;entryY=0.5;entryDx=0;entryDy=0;exitX=0.967;exitY=0.418;exitDx=0;exitDy=0;exitPerimeter=0;" edge="1" parent="WIyWlLk6GJQsqaUBKTNV-1" source="IjV_NzWO8GJ3UAN_setO-7" target="IjV_NzWO8GJ3UAN_setO-4">
          <mxGeometry width="50" height="50" relative="1" as="geometry">
            <mxPoint x="30" y="430" as="sourcePoint" />
            <mxPoint x="80" y="380" as="targetPoint" />
          </mxGeometry>
        </mxCell>
        <mxCell id="IjV_NzWO8GJ3UAN_setO-11" value="" style="endArrow=classic;html=1;rounded=0;entryX=1;entryY=0.5;entryDx=0;entryDy=0;exitX=0.572;exitY=-0.006;exitDx=0;exitDy=0;exitPerimeter=0;" edge="1" parent="WIyWlLk6GJQsqaUBKTNV-1" source="IjV_NzWO8GJ3UAN_setO-4" target="EPnrbAqvLK3zoyTaMCjb-46">
          <mxGeometry width="50" height="50" relative="1" as="geometry">
            <mxPoint x="521.7777506510416" y="520" as="sourcePoint" />
            <mxPoint x="80" y="380" as="targetPoint" />
            <Array as="points">
              <mxPoint x="500" y="145" />
            </Array>
          </mxGeometry>
        </mxCell>
        <mxCell id="IjV_NzWO8GJ3UAN_setO-12" value="Ask user input on refund" style="shape=parallelogram;perimeter=parallelogramPerimeter;whiteSpace=wrap;html=1;fixedSize=1;" vertex="1" parent="WIyWlLk6GJQsqaUBKTNV-1">
          <mxGeometry x="310" y="368" width="160" height="70" as="geometry" />
        </mxCell>
        <mxCell id="IjV_NzWO8GJ3UAN_setO-13" value="" style="endArrow=classic;html=1;rounded=0;entryX=0;entryY=0.5;entryDx=0;entryDy=0;exitX=1;exitY=0.5;exitDx=0;exitDy=0;" edge="1" parent="WIyWlLk6GJQsqaUBKTNV-1" source="WIyWlLk6GJQsqaUBKTNV-6" target="IjV_NzWO8GJ3UAN_setO-12">
          <mxGeometry width="50" height="50" relative="1" as="geometry">
            <mxPoint x="90" y="430" as="sourcePoint" />
            <mxPoint x="140" y="380" as="targetPoint" />
            <Array as="points">
              <mxPoint x="290" y="315" />
              <mxPoint x="290" y="403" />
            </Array>
          </mxGeometry>
        </mxCell>
        <mxCell id="IjV_NzWO8GJ3UAN_setO-14" value="" style="endArrow=classic;html=1;rounded=0;" edge="1" parent="WIyWlLk6GJQsqaUBKTNV-1">
          <mxGeometry width="50" height="50" relative="1" as="geometry">
            <mxPoint x="460" y="400" as="sourcePoint" />
            <mxPoint x="530" y="400" as="targetPoint" />
          </mxGeometry>
        </mxCell>
        <mxCell id="IjV_NzWO8GJ3UAN_setO-16" value="Refund Land" style="rounded=0;whiteSpace=wrap;html=1;" vertex="1" parent="WIyWlLk6GJQsqaUBKTNV-1">
          <mxGeometry x="530" y="373" width="120" height="60" as="geometry" />
        </mxCell>
        <mxCell id="IjV_NzWO8GJ3UAN_setO-17" value="" style="endArrow=classic;html=1;rounded=0;entryX=1;entryY=0.75;entryDx=0;entryDy=0;exitX=0.5;exitY=0;exitDx=0;exitDy=0;" edge="1" parent="WIyWlLk6GJQsqaUBKTNV-1" source="IjV_NzWO8GJ3UAN_setO-16" target="EPnrbAqvLK3zoyTaMCjb-46">
          <mxGeometry width="50" height="50" relative="1" as="geometry">
            <mxPoint x="90" y="430" as="sourcePoint" />
            <mxPoint x="140" y="380" as="targetPoint" />
            <Array as="points">
              <mxPoint x="590" y="160" />
            </Array>
          </mxGeometry>
        </mxCell>
        <mxCell id="IjV_NzWO8GJ3UAN_setO-18" value="6" style="text;html=1;align=center;verticalAlign=middle;resizable=0;points=[];autosize=1;strokeColor=none;fillColor=none;" vertex="1" parent="WIyWlLk6GJQsqaUBKTNV-1">
          <mxGeometry x="250" y="330" width="30" height="30" as="geometry" />
        </mxCell>
        <mxCell id="IjV_NzWO8GJ3UAN_setO-19" value="" style="endArrow=classic;html=1;rounded=0;exitX=0.5;exitY=1;exitDx=0;exitDy=0;" edge="1" parent="WIyWlLk6GJQsqaUBKTNV-1" source="WIyWlLk6GJQsqaUBKTNV-6">
          <mxGeometry width="50" height="50" relative="1" as="geometry">
            <mxPoint x="90" y="880" as="sourcePoint" />
            <mxPoint x="115" y="640" as="targetPoint" />
          </mxGeometry>
        </mxCell>
        <mxCell id="IjV_NzWO8GJ3UAN_setO-21" value="END" style="rounded=1;whiteSpace=wrap;html=1;" vertex="1" parent="WIyWlLk6GJQsqaUBKTNV-1">
          <mxGeometry x="60" y="640" width="120" height="60" as="geometry" />
        </mxCell>
      </root>
    </mxGraphModel>
  </diagram>
</mxfile>
